<svg width="162" height="41" viewBox="0 0 162 41" fill="none" xmlns="http://www.w3.org/2000/svg">
<g clip-path="url(#clip0_4038_14713)">
<path d="M157.671 24.6559C157.041 24.6559 156.424 24.843 155.899 25.1935C155.375 25.544 154.966 26.0422 154.724 26.6251C154.483 27.208 154.42 27.8494 154.543 28.4682C154.666 29.087 154.97 29.6554 155.416 30.1016C155.862 30.5477 156.43 30.8515 157.049 30.9746C157.668 31.0977 158.309 31.0345 158.892 30.7931C159.475 30.5516 159.973 30.1428 160.324 29.6182C160.674 29.0936 160.861 28.4768 160.861 27.8459C160.867 27.4255 160.788 27.0083 160.63 26.6188C160.471 26.2294 160.236 25.8756 159.939 25.5783C159.642 25.281 159.288 25.0462 158.899 24.8878C158.509 24.7294 158.092 24.6505 157.671 24.6559Z" fill="#F37321"/>
<path d="M65.7012 28.1459H63.5012V15.5759C63.5012 13.2859 62.7012 9.57587 57.7212 9.57587C54.9212 9.57587 52.2312 10.6659 49.4412 13.4659C48.9412 11.4659 47.3412 9.57587 43.9512 9.57587C41.2612 9.57587 38.9512 10.7659 36.1712 13.3659V11.2659C36.1713 11.0974 36.1374 10.9307 36.0715 10.7757C36.0056 10.6207 35.909 10.4806 35.7876 10.3638C35.6661 10.2471 35.5224 10.1561 35.3649 10.0963C35.2074 10.0365 35.0395 10.0091 34.8712 10.0159H30.8712C30.5474 10.0444 30.246 10.1931 30.0264 10.4328C29.8069 10.6725 29.6851 10.9858 29.6851 11.3109C29.6851 11.6359 29.8069 11.9492 30.0264 12.1889C30.246 12.4286 30.5474 12.5774 30.8712 12.6059H32.8712V28.1459H26.1912L18.4112 2.80587C18.3387 2.4389 18.14 2.10891 17.8495 1.87324C17.5591 1.63757 17.1952 1.51112 16.8212 1.51587H7.82117C7.64944 1.5089 7.47812 1.53742 7.31791 1.59966C7.15769 1.66189 7.01204 1.75649 6.89004 1.87755C6.76803 1.99861 6.67231 2.14354 6.60884 2.30326C6.54538 2.46299 6.51553 2.63409 6.52117 2.80587C6.51564 2.97585 6.54691 3.14501 6.61285 3.30178C6.67878 3.45854 6.77783 3.5992 6.90319 3.71412C7.02856 3.82904 7.17728 3.9155 7.33918 3.96758C7.50108 4.01967 7.67232 4.03614 7.84117 4.01587H11.3312L4.06117 28.1459H1.36117C1.18155 28.1301 1.0006 28.1518 0.829826 28.2097C0.659055 28.2676 0.502197 28.3604 0.369222 28.4822C0.236248 28.604 0.130065 28.7521 0.0574219 28.9172C-0.0152208 29.0822 -0.0527344 29.2605 -0.0527344 29.4409C-0.0527344 29.6212 -0.0152208 29.7995 0.0574219 29.9646C0.130065 30.1296 0.236248 30.2777 0.369222 30.3995C0.502197 30.5213 0.659055 30.6141 0.829826 30.672C1.0006 30.7299 1.18155 30.7517 1.36117 30.7359H10.3612C10.5408 30.7517 10.7217 30.7299 10.8925 30.672C11.0633 30.6141 11.2201 30.5213 11.3531 30.3995C11.4861 30.2777 11.5923 30.1296 11.6649 29.9646C11.7376 29.7995 11.7751 29.6212 11.7751 29.4409C11.7751 29.2605 11.7376 29.0822 11.6649 28.9172C11.5923 28.7521 11.4861 28.604 11.3531 28.4822C11.2201 28.3604 11.0633 28.2676 10.8925 28.2097C10.7217 28.1518 10.5408 28.1301 10.3612 28.1459H7.54117L10.0412 19.1459H19.6112L22.2012 28.1459H19.4112C19.2315 28.1301 19.0506 28.1518 18.8798 28.2097C18.7091 28.2676 18.5522 28.3604 18.4192 28.4822C18.2862 28.604 18.1801 28.7521 18.1074 28.9172C18.0348 29.0822 17.9973 29.2605 17.9973 29.4409C17.9973 29.6212 18.0348 29.7995 18.1074 29.9646C18.1801 30.1296 18.2862 30.2777 18.4192 30.3995C18.5522 30.5213 18.7091 30.6141 18.8798 30.672C19.0506 30.7299 19.2315 30.7517 19.4112 30.7359H38.3612C38.5408 30.7517 38.7217 30.7299 38.8925 30.672C39.0633 30.6141 39.2201 30.5213 39.3531 30.3995C39.4861 30.2777 39.5923 30.1296 39.6649 29.9646C39.7376 29.7995 39.7751 29.6212 39.7751 29.4409C39.7751 29.2605 39.7376 29.0822 39.6649 28.9172C39.5923 28.7521 39.4861 28.604 39.3531 28.4822C39.2201 28.3604 39.0633 28.2676 38.8925 28.2097C38.7217 28.1518 38.5408 28.1301 38.3612 28.1459H36.0612V16.0759C38.4512 13.8859 40.7512 12.5859 43.0612 12.5859C43.5044 12.5405 43.9522 12.5944 44.372 12.7437C44.7918 12.893 45.173 13.1339 45.4881 13.4489C45.8032 13.764 46.0441 14.1453 46.1934 14.5651C46.3427 14.9849 46.3966 15.4326 46.3512 15.8759V28.1459H44.0612C43.8815 28.1301 43.7006 28.1518 43.5298 28.2097C43.3591 28.2676 43.2022 28.3604 43.0692 28.4822C42.9362 28.604 42.8301 28.7521 42.7574 28.9172C42.6848 29.0822 42.6473 29.2605 42.6473 29.4409C42.6473 29.6212 42.6848 29.7995 42.7574 29.9646C42.8301 30.1296 42.9362 30.2777 43.0692 30.3995C43.2022 30.5213 43.3591 30.6141 43.5298 30.672C43.7006 30.7299 43.8815 30.7517 44.0612 30.7359H51.9412C52.1208 30.7517 52.3017 30.7299 52.4725 30.672C52.6433 30.6141 52.8001 30.5213 52.9331 30.3995C53.0661 30.2777 53.1723 30.1296 53.2449 29.9646C53.3176 29.7995 53.3551 29.6212 53.3551 29.4409C53.3551 29.2605 53.3176 29.0822 53.2449 28.9172C53.1723 28.7521 53.0661 28.604 52.9331 28.4822C52.8001 28.3604 52.6433 28.2676 52.4725 28.2097C52.3017 28.1518 52.1208 28.1301 51.9412 28.1459H49.8412V16.0759C52.2312 13.8859 54.5212 12.5859 56.8412 12.5859C57.2844 12.5405 57.7322 12.5944 58.152 12.7437C58.5718 12.893 58.953 13.1339 59.2681 13.4489C59.5832 13.764 59.8241 14.1453 59.9734 14.5651C60.1227 14.9849 60.1766 15.4326 60.1312 15.8759V28.1459H57.8212C57.6415 28.1301 57.4606 28.1518 57.2898 28.2097C57.1191 28.2676 56.9622 28.3604 56.8292 28.4822C56.6962 28.604 56.5901 28.7521 56.5174 28.9172C56.4448 29.0822 56.4073 29.2605 56.4073 29.4409C56.4073 29.6212 56.4448 29.7995 56.5174 29.9646C56.5901 30.1296 56.6962 30.2777 56.8292 30.3995C56.9622 30.5213 57.1191 30.6141 57.2898 30.672C57.4606 30.7299 57.6415 30.7517 57.8212 30.7359H65.7012C66.025 30.7074 66.3264 30.5586 66.5459 30.3189C66.7655 30.0792 66.8873 29.7659 66.8873 29.4409C66.8873 29.1158 66.7655 28.8025 66.5459 28.5628C66.3264 28.3231 66.025 28.1744 65.7012 28.1459ZM10.8312 16.3759L14.3212 4.01587H15.5212L19.0612 16.3759H10.8312ZM112.281 6.69587C113.015 6.68047 113.715 6.38127 114.233 5.86107C114.752 5.34087 115.048 4.64011 115.061 3.90587C115.062 3.53911 114.991 3.17572 114.851 2.83662C114.712 2.49753 114.506 2.18943 114.247 1.93009C113.988 1.67076 113.68 1.4653 113.34 1.32555C113.001 1.18581 112.638 1.11455 112.271 1.11587C111.535 1.12872 110.833 1.42679 110.313 1.94725C109.792 2.46772 109.494 3.16993 109.481 3.90587C109.494 4.64351 109.794 5.34718 110.316 5.86792C110.839 6.38866 111.543 6.68559 112.281 6.69587ZM116.971 28.1459H114.271V11.2859C114.275 11.1162 114.245 10.9475 114.181 10.7902C114.118 10.6329 114.022 10.4903 113.901 10.3712C113.781 10.2522 113.636 10.1592 113.478 10.0981C113.32 10.037 113.151 10.009 112.981 10.0159H108.061C107.882 10.0001 107.701 10.0218 107.53 10.0797C107.359 10.1376 107.202 10.2304 107.069 10.3522C106.936 10.474 106.83 10.6221 106.757 10.7872C106.685 10.9522 106.647 11.1305 106.647 11.3109C106.647 11.4912 106.685 11.6695 106.757 11.8346C106.83 11.9996 106.936 12.1477 107.069 12.2695C107.202 12.3913 107.359 12.4841 107.53 12.542C107.701 12.5999 107.882 12.6217 108.061 12.6059H110.851V28.1459H108.061C107.882 28.1301 107.701 28.1518 107.53 28.2097C107.359 28.2676 107.202 28.3604 107.069 28.4822C106.936 28.604 106.83 28.7521 106.757 28.9172C106.685 29.0822 106.647 29.2605 106.647 29.4409C106.647 29.6212 106.685 29.7995 106.757 29.9646C106.83 30.1296 106.936 30.2777 107.069 30.3995C107.202 30.5213 107.359 30.6141 107.53 30.672C107.701 30.7299 107.882 30.7517 108.061 30.7359H116.941C117.265 30.7074 117.566 30.5586 117.786 30.3189C118.005 30.0792 118.127 29.7659 118.127 29.4409C118.127 29.1158 118.005 28.8025 117.786 28.5628C117.566 28.3231 117.265 28.1744 116.941 28.1459H116.971ZM81.8612 9.59587C80.4651 9.56168 79.0844 9.89353 77.8563 10.5584C76.6283 11.2233 75.5957 12.1981 74.8612 13.3859H74.7612V11.2859C74.7639 11.1175 74.7326 10.9503 74.6691 10.7943C74.6056 10.6383 74.5113 10.4968 74.3917 10.3782C74.2722 10.2596 74.1299 10.1663 73.9734 10.1041C73.817 10.0418 73.6495 10.0118 73.4812 10.0159H69.4812C69.3015 10.0001 69.1206 10.0218 68.9498 10.0797C68.7791 10.1376 68.6222 10.2304 68.4892 10.3522C68.3562 10.474 68.2501 10.6221 68.1774 10.7872C68.1048 10.9522 68.0673 11.1305 68.0673 11.3109C68.0673 11.4912 68.1048 11.6695 68.1774 11.8346C68.2501 11.9996 68.3562 12.1477 68.4892 12.2695C68.6222 12.3913 68.7791 12.4841 68.9498 12.542C69.1206 12.5999 69.3015 12.6217 69.4812 12.6059H71.4812V37.2259H69.1912C69.0179 37.2125 68.8438 37.2367 68.6807 37.2966C68.5176 37.3566 68.3693 37.451 68.246 37.5734C68.1226 37.6958 68.0271 37.8433 67.9659 38.006C67.9046 38.1686 67.8792 38.3425 67.8912 38.5159C67.8856 38.6881 67.9154 38.8596 67.9788 39.0199C68.0422 39.1801 68.1377 39.3256 68.2596 39.4475C68.3814 39.5693 68.5269 39.6649 68.6872 39.7282C68.8474 39.7916 69.019 39.8214 69.1912 39.8159H77.8712C78.0445 39.8279 78.2184 39.8024 78.3811 39.7412C78.5437 39.6799 78.6912 39.5844 78.8136 39.461C78.936 39.3377 79.0304 39.1894 79.0904 39.0263C79.1504 38.8632 79.1745 38.6891 79.1612 38.5159C79.1653 38.3453 79.1347 38.1758 79.0714 38.0174C79.008 37.859 78.9131 37.7152 78.7925 37.5945C78.6719 37.4739 78.528 37.3791 78.3697 37.3157C78.2113 37.2523 78.0417 37.2218 77.8712 37.2259H74.8712V27.4459C75.5805 28.5883 76.5869 29.5164 77.7829 30.1311C78.9789 30.7458 80.3194 31.024 81.6612 30.9359C87.4412 30.9359 90.9312 26.5459 90.9312 20.1659C90.9312 13.7859 87.2412 9.59587 81.8612 9.59587ZM81.2612 28.3459C77.7712 28.3459 74.8712 25.8559 74.8712 20.3459C74.8712 14.8359 77.7712 12.3459 81.2612 12.3459C84.7512 12.3459 87.6412 14.9359 87.6412 20.3459C87.6412 25.7559 84.8512 28.3459 81.2612 28.3459ZM155.771 11.3459C155.777 11.1736 155.747 11.0021 155.684 10.8419C155.62 10.6816 155.525 10.5361 155.403 10.4143C155.281 10.2924 155.135 10.1969 154.975 10.1335C154.815 10.0701 154.643 10.0403 154.471 10.0459V10.1459H147.391C147.046 10.1459 146.716 10.2828 146.472 10.5266C146.228 10.7704 146.091 11.1011 146.091 11.4459C146.091 11.7907 146.228 12.1213 146.472 12.3651C146.716 12.6089 147.046 12.7459 147.391 12.7459H149.791L144.001 27.3059L138.311 12.7459H140.511C140.856 12.7459 141.187 12.6089 141.43 12.3651C141.674 12.1213 141.811 11.7907 141.811 11.4459C141.811 11.1011 141.674 10.7704 141.43 10.5266C141.187 10.2828 140.856 10.1459 140.511 10.1459H127.741V7.59587C127.741 5.00587 128.841 3.00587 131.831 3.00587C132.953 3.02295 134.065 3.22569 135.121 3.60587C135.309 3.69639 135.514 3.74636 135.723 3.75256C135.932 3.75876 136.139 3.72105 136.332 3.64186C136.526 3.56267 136.7 3.44378 136.844 3.29288C136.988 3.14199 137.099 2.96247 137.17 2.76595C137.24 2.56944 137.269 2.36032 137.253 2.15214C137.238 1.94396 137.178 1.74138 137.08 1.55752C136.981 1.37366 136.844 1.21263 136.679 1.08487C136.514 0.957104 136.324 0.865458 136.121 0.815869C134.681 0.294211 133.163 0.0236138 131.631 0.0158691C127.341 0.0158691 124.351 2.70587 124.351 7.19587V10.0159H121.561C121.382 10.0001 121.201 10.0218 121.03 10.0797C120.859 10.1376 120.702 10.2304 120.569 10.3522C120.436 10.474 120.33 10.6221 120.257 10.7872C120.185 10.9522 120.147 11.1305 120.147 11.3109C120.147 11.4912 120.185 11.6695 120.257 11.8346C120.33 11.9996 120.436 12.1477 120.569 12.2695C120.702 12.3913 120.859 12.4841 121.03 12.542C121.201 12.5999 121.382 12.6217 121.561 12.6059H124.351V28.1459H121.561C121.382 28.1301 121.201 28.1518 121.03 28.2097C120.859 28.2676 120.702 28.3604 120.569 28.4822C120.436 28.604 120.33 28.7521 120.257 28.9172C120.185 29.0822 120.147 29.2605 120.147 29.4409C120.147 29.6212 120.185 29.7995 120.257 29.9646C120.33 30.1296 120.436 30.2777 120.569 30.3995C120.702 30.5213 120.859 30.6141 121.03 30.672C121.201 30.7299 121.382 30.7517 121.561 30.7359H130.831C131.011 30.7517 131.192 30.7299 131.363 30.672C131.533 30.6141 131.69 30.5213 131.823 30.3995C131.956 30.2777 132.062 30.1296 132.135 29.9646C132.208 29.7995 132.245 29.6212 132.245 29.4409C132.245 29.2605 132.208 29.0822 132.135 28.9172C132.062 28.7521 131.956 28.604 131.823 28.4822C131.69 28.3604 131.533 28.2676 131.363 28.2097C131.192 28.1518 131.011 28.1301 130.831 28.1459H127.641V12.5859H134.721L142.061 30.8359L141.661 31.8359C141.136 33.1264 140.428 34.3352 139.561 35.4259C139.065 35.992 138.448 36.4389 137.756 36.7332C137.063 37.0276 136.313 37.1618 135.561 37.1259C134.793 37.0687 134.028 36.9686 133.271 36.8259C132.912 36.7845 132.551 36.8814 132.261 37.097C131.971 37.3125 131.775 37.6305 131.711 37.986C131.647 38.3416 131.721 38.7081 131.918 39.0109C132.115 39.3137 132.42 39.53 132.771 39.6159C133.713 39.8751 134.684 40.0096 135.661 40.0159C141.451 40.0159 143.241 36.0159 145.441 30.7359L153.021 12.7359H154.511C154.684 12.7363 154.856 12.701 155.015 12.6321C155.174 12.5632 155.317 12.4623 155.436 12.3356C155.554 12.2089 155.645 12.0591 155.702 11.8957C155.76 11.7323 155.784 11.5587 155.771 11.3859V11.3459ZM103.601 28.1459H100.911V2.01587C100.917 1.84365 100.887 1.67212 100.824 1.51188C100.76 1.35164 100.665 1.2061 100.543 1.08426C100.421 0.962416 100.275 0.86686 100.115 0.803496C99.9549 0.740133 99.7834 0.710309 99.6112 0.715869H94.7212C94.5498 0.711699 94.3793 0.742551 94.2203 0.806535C94.0612 0.87052 93.9169 0.966292 93.7961 1.08799C93.6754 1.20968 93.5807 1.35475 93.518 1.51429C93.4552 1.67384 93.4257 1.84451 93.4312 2.01587C93.4376 2.17875 93.4761 2.33877 93.5444 2.48676C93.6128 2.63475 93.7096 2.76782 93.8294 2.87834C93.9492 2.98887 94.0897 3.07469 94.2427 3.13089C94.3957 3.18709 94.5583 3.21257 94.7212 3.20587H97.5212V28.1459H94.7212C94.3974 28.1744 94.096 28.3231 93.8764 28.5628C93.6569 28.8025 93.5351 29.1158 93.5351 29.4409C93.5351 29.7659 93.6569 30.0792 93.8764 30.3189C94.096 30.5586 94.3974 30.7074 94.7212 30.7359H103.601C103.781 30.7517 103.962 30.7299 104.133 30.672C104.303 30.6141 104.46 30.5213 104.593 30.3995C104.726 30.2777 104.832 30.1296 104.905 29.9646C104.978 29.7995 105.015 29.6212 105.015 29.4409C105.015 29.2605 104.978 29.0822 104.905 28.9172C104.832 28.7521 104.726 28.604 104.593 28.4822C104.46 28.3604 104.303 28.2676 104.133 28.2097C103.962 28.1518 103.781 28.1301 103.601 28.1459Z" fill="#F37321"/>
</g>
<defs>
<clipPath id="clip0_4038_14713">
<rect width="161" height="40" fill="white" transform="translate(0.0615234 0.0158691)"/>
</clipPath>
</defs>
</svg>
